<svg id="Layer_1" data-name="Layer 1" xmlns="http://www.w3.org/2000/svg" xmlns:xlink="http://www.w3.org/1999/xlink" viewBox="0 0 512 512"><defs><filter id="luminosity-noclip" x="0" y="-9516" width="512" height="32766" filterUnits="userSpaceOnUse" color-interpolation-filters="sRGB"><feFlood flood-color="#fff" result="bg"/><feBlend in="SourceGraphic" in2="bg"/></filter><mask id="mask" x="0" y="-9516" width="512" height="32766" maskUnits="userSpaceOnUse"><g filter="url(#luminosity-noclip)"/></mask><radialGradient id="radial-gradient" cx="733.19" cy="733.42" r="141.4" gradientTransform="translate(-1071.41 -1071.81) scale(1.81 1.81)" gradientUnits="userSpaceOnUse"><stop offset="0.55" stop-color="#fff"/><stop offset="0.6" stop-color="#d4d4d4"/><stop offset="0.66" stop-color="#9d9d9d"/><stop offset="0.72" stop-color="#6d6d6d"/><stop offset="0.78" stop-color="#464646"/><stop offset="0.84" stop-color="#272727"/><stop offset="0.89" stop-color="#111"/><stop offset="0.95" stop-color="#040404"/><stop offset="1"/></radialGradient><filter id="luminosity-noclip-2" x="0" y="0" width="512" height="512" filterUnits="userSpaceOnUse" color-interpolation-filters="sRGB"><feFlood flood-color="#fff" result="bg"/><feBlend in="SourceGraphic" in2="bg"/></filter><mask id="mask-2" x="0" y="0" width="512" height="512" maskUnits="userSpaceOnUse"><g mask="url(#mask)" filter="url(#luminosity-noclip-2)"><circle cx="256" cy="256" r="256" fill="url(#radial-gradient)" style="mix-blend-mode:multiply"/></g></mask><radialGradient id="radial-gradient-2" cx="733.19" cy="733.42" r="141.4" gradientTransform="translate(-1071.41 -1071.81) scale(1.81 1.81)" gradientUnits="userSpaceOnUse"><stop offset="0.55" stop-color="#c5c7c9"/><stop offset="0.64" stop-color="#d8d9db"/><stop offset="0.77" stop-color="#eeeeef"/><stop offset="0.89" stop-color="#fbfbfb"/><stop offset="1" stop-color="#fff"/></radialGradient></defs><title>facebook</title><g mask="url(#mask-2)"><circle cx="256" cy="256" r="256" fill="url(#radial-gradient-2)"/></g><path d="M71.43,205.43C71.43,103.49,154.07,20.85,256,20.85s184.57,82.65,184.57,184.6S357.93,390,256,390,71.42,307.36,71.43,205.43Z" fill="#fff"/><path d="M274.63,157.34c4.54-.15,9.08,0,13.63,0h1.87v-23.6c-2.42-.24-5-.59-7.5-.72-4.66-.2-9.32-.44-14-.32-7.11.14-13.84,1.87-19.73,6.1-6.74,4.85-10.45,11.66-11.86,19.71a68,68,0,0,0-.82,10.13c-.13,5.31,0,10.61,0,15.91v2h-22.6v26.37h22.47v66.3h27.45V213h22.4c1.15-8.78,2.27-17.46,3.44-26.5h-5c-6.36,0-21,0-21,0s.07-13.08.22-18.74C263.8,159.94,268.41,157.57,274.63,157.34Z" fill="#2b77c1" fill-rule="evenodd"/></svg>